<svg width="80" height="80" viewBox="0 0 80 80" fill="none" xmlns="http://www.w3.org/2000/svg">
<circle cx="40" cy="40" r="40" fill="#E1EBFF"/>
<path d="M47.875 26C47.875 26 49.8438 29.9375 47.875 34.75M54 22.5C54 22.5 57.9375 29.5875 54 38.25M35.625 36.5C36.4293 36.5 37.2258 36.3416 37.9689 36.0338C38.7121 35.726 39.3873 35.2748 39.956 34.706C40.5248 34.1373 40.976 33.4621 41.2838 32.7189C41.5916 31.9758 41.75 31.1793 41.75 30.375C41.75 29.5707 41.5916 28.7742 41.2838 28.0311C40.976 27.2879 40.5248 26.6127 39.956 26.044C39.3873 25.4752 38.7121 25.024 37.9689 24.7162C37.2258 24.4084 36.4293 24.25 35.625 24.25C34.0005 24.25 32.4426 24.8953 31.294 26.044C30.1453 27.1926 29.5 28.7505 29.5 30.375C29.5 31.9995 30.1453 33.5574 31.294 34.706C32.4426 35.8547 34.0005 36.5 35.625 36.5ZM22.5 54.7V55.75H48.75V54.7C48.75 50.78 48.75 48.82 47.987 47.322C47.3159 46.0049 46.2451 44.9341 44.928 44.263C43.43 43.5 41.47 43.5 37.55 43.5H33.7C29.78 43.5 27.82 43.5 26.322 44.263C25.0049 44.9341 23.9341 46.0049 23.263 47.322C22.5 48.82 22.5 50.78 22.5 54.7Z" stroke="#0049FD" stroke-width="4" stroke-linecap="round" stroke-linejoin="round"/>
</svg>
