<svg width="150" height="27" viewBox="0 0 150 27" fill="none" xmlns="http://www.w3.org/2000/svg">
<g clip-path="url(#clip0_8_26)">
<path d="M28.7386 26.5034V7.42407H35.8435V26.5034H28.7386Z" fill="#272526"/>
<path d="M37.2006 26.7429V4.23096H37.5199L50.9313 17.6423L64.3427 4.23096V26.4236H57.4773V18.9995L50.9313 25.5455L44.3852 18.9995V26.7429H37.2006Z" fill="#272526"/>
<path d="M85.9364 15.5061C85.3155 16.4266 78.2285 23.306 74.5609 26.8228H66.0192L92.8419 0V26.8228H85.9766C85.9031 23.2472 85.8026 16.4216 85.9364 15.5061Z" fill="#272526"/>
<path d="M123.018 26.5832V7.90308H149.521V12.8525H129.484V14.6886H148.962L144.412 19.0792H129.085V21.2346H150V26.5832H123.018Z" fill="#272526"/>
<path fill-rule="evenodd" clip-rule="evenodd" d="M0 7.42407V26.5034H21.7935L26.9824 21.3144V7.42407H0ZM6.46618 13.0122H20.4364V18.9195L18.3608 20.9951H6.46618V13.0122Z" fill="#272526"/>
<path fill-rule="evenodd" clip-rule="evenodd" d="M94.5183 7.42407V26.5034H116.312L121.501 21.3144V7.42407H94.5183ZM100.984 13.0122H114.955V18.9195L112.879 20.9951H100.984V13.0122Z" fill="#272526"/>
</g>
<defs>
<clipPath id="clip0_8_26">
<rect width="150" height="26.8228" fill="white"/>
</clipPath>
</defs>
</svg>
