<svg width="182" height="31" viewBox="0 0 182 31" fill="none" xmlns="http://www.w3.org/2000/svg">
<rect width="181.5" height="31" rx="15.5" fill="white"/>
<path d="M46.5 8.75C46.5 7.5125 45.4875 6.5 44.25 6.5H26.25C25.0125 6.5 24 7.5125 24 8.75V22.25C24 23.4875 25.0125 24.5 26.25 24.5H44.25C45.4875 24.5 46.5 23.4875 46.5 22.25V8.75ZM44.25 8.75L35.25 14.375L26.25 8.75H44.25ZM44.25 22.25H26.25V11L35.25 16.625L44.25 11V22.25Z" fill="black"/>
<path d="M70.4432 13.1477H68.6705C68.6023 12.7689 68.4754 12.4356 68.2898 12.1477C68.1042 11.8598 67.8769 11.6155 67.608 11.4148C67.339 11.214 67.0379 11.0625 66.7045 10.9602C66.375 10.858 66.0246 10.8068 65.6534 10.8068C64.983 10.8068 64.3826 10.9754 63.8523 11.3125C63.3258 11.6496 62.9091 12.1439 62.6023 12.7955C62.2992 13.447 62.1477 14.2424 62.1477 15.1818C62.1477 16.1288 62.2992 16.928 62.6023 17.5795C62.9091 18.2311 63.3277 18.7235 63.858 19.0568C64.3883 19.3902 64.9848 19.5568 65.6477 19.5568C66.0152 19.5568 66.3636 19.5076 66.6932 19.4091C67.0265 19.3068 67.3277 19.1572 67.5966 18.9602C67.8655 18.7633 68.0928 18.5227 68.2784 18.2386C68.4678 17.9508 68.5985 17.6212 68.6705 17.25L70.4432 17.2557C70.3485 17.8277 70.1648 18.3542 69.892 18.8352C69.6231 19.3125 69.2765 19.7254 68.8523 20.0739C68.4318 20.4186 67.9508 20.6856 67.4091 20.875C66.8674 21.0644 66.2765 21.1591 65.6364 21.1591C64.6288 21.1591 63.7311 20.9205 62.9432 20.4432C62.1553 19.9621 61.5341 19.2746 61.0795 18.3807C60.6288 17.4867 60.4034 16.4205 60.4034 15.1818C60.4034 13.9394 60.6307 12.8731 61.0852 11.983C61.5398 11.089 62.161 10.4034 62.9489 9.92614C63.7367 9.44508 64.6326 9.20455 65.6364 9.20455C66.2538 9.20455 66.8295 9.29356 67.3636 9.47159C67.9015 9.64583 68.3845 9.90341 68.8125 10.2443C69.2405 10.5814 69.5947 10.9943 69.875 11.483C70.1553 11.9678 70.3447 12.5227 70.4432 13.1477ZM76.0838 21.1761C75.2656 21.1761 74.5516 20.9886 73.9418 20.6136C73.3319 20.2386 72.8584 19.714 72.5213 19.0398C72.1842 18.3655 72.0156 17.5777 72.0156 16.6761C72.0156 15.7708 72.1842 14.9792 72.5213 14.3011C72.8584 13.6231 73.3319 13.0966 73.9418 12.7216C74.5516 12.3466 75.2656 12.1591 76.0838 12.1591C76.902 12.1591 77.616 12.3466 78.2259 12.7216C78.8357 13.0966 79.3092 13.6231 79.6463 14.3011C79.9834 14.9792 80.152 15.7708 80.152 16.6761C80.152 17.5777 79.9834 18.3655 79.6463 19.0398C79.3092 19.714 78.8357 20.2386 78.2259 20.6136C77.616 20.9886 76.902 21.1761 76.0838 21.1761ZM76.0895 19.75C76.6198 19.75 77.0592 19.6098 77.4077 19.3295C77.7562 19.0492 78.0137 18.6761 78.1804 18.2102C78.3509 17.7443 78.4361 17.2311 78.4361 16.6705C78.4361 16.1136 78.3509 15.6023 78.1804 15.1364C78.0137 14.6667 77.7562 14.2898 77.4077 14.0057C77.0592 13.7216 76.6198 13.5795 76.0895 13.5795C75.5554 13.5795 75.1122 13.7216 74.7599 14.0057C74.4115 14.2898 74.152 14.6667 73.9815 15.1364C73.8149 15.6023 73.7315 16.1136 73.7315 16.6705C73.7315 17.2311 73.8149 17.7443 73.9815 18.2102C74.152 18.6761 74.4115 19.0492 74.7599 19.3295C75.1122 19.6098 75.5554 19.75 76.0895 19.75ZM83.7472 15.8182V21H82.0483V12.2727H83.679V13.6932H83.7869C83.9877 13.2311 84.3021 12.8598 84.7301 12.5795C85.1619 12.2992 85.7055 12.1591 86.3608 12.1591C86.9555 12.1591 87.4763 12.2841 87.9233 12.5341C88.3703 12.7803 88.7169 13.1477 88.9631 13.6364C89.2093 14.125 89.3324 14.7292 89.3324 15.4489V21H87.6335V15.6534C87.6335 15.0208 87.4688 14.5265 87.1392 14.1705C86.8097 13.8106 86.357 13.6307 85.7812 13.6307C85.3873 13.6307 85.0369 13.7159 84.7301 13.8864C84.4271 14.0568 84.1866 14.3068 84.0085 14.6364C83.8343 14.9621 83.7472 15.3561 83.7472 15.8182ZM95.6847 12.2727V13.6364H90.9176V12.2727H95.6847ZM92.196 10.1818H93.8949V18.4375C93.8949 18.767 93.9441 19.0152 94.0426 19.1818C94.1411 19.3447 94.268 19.4564 94.4233 19.517C94.5824 19.5739 94.7547 19.6023 94.9403 19.6023C95.0767 19.6023 95.196 19.5928 95.2983 19.5739C95.4006 19.5549 95.4801 19.5398 95.5369 19.5284L95.8438 20.9318C95.7453 20.9697 95.6051 21.0076 95.4233 21.0455C95.2415 21.0871 95.0142 21.1098 94.7415 21.1136C94.2945 21.1212 93.8778 21.0417 93.4915 20.875C93.1051 20.7083 92.7926 20.4508 92.554 20.1023C92.3153 19.7538 92.196 19.3163 92.196 18.7898V10.1818ZM100.104 21.1932C99.5507 21.1932 99.0507 21.0909 98.6037 20.8864C98.1567 20.678 97.8026 20.3769 97.5412 19.983C97.2836 19.589 97.1548 19.1061 97.1548 18.5341C97.1548 18.0417 97.2495 17.6364 97.4389 17.3182C97.6283 17 97.884 16.7481 98.206 16.5625C98.5279 16.3769 98.8878 16.2367 99.2855 16.142C99.6832 16.0473 100.089 15.9754 100.501 15.9261C101.024 15.8655 101.448 15.8163 101.774 15.7784C102.1 15.7367 102.337 15.6705 102.484 15.5795C102.632 15.4886 102.706 15.3409 102.706 15.1364V15.0966C102.706 14.6004 102.566 14.2159 102.286 13.9432C102.009 13.6705 101.596 13.5341 101.047 13.5341C100.475 13.5341 100.024 13.661 99.6946 13.9148C99.3688 14.1648 99.1435 14.4432 99.0185 14.75L97.4219 14.3864C97.6113 13.8561 97.8878 13.428 98.2514 13.1023C98.6188 12.7727 99.0412 12.5341 99.5185 12.3864C99.9957 12.2348 100.498 12.1591 101.024 12.1591C101.373 12.1591 101.742 12.2008 102.132 12.2841C102.526 12.3636 102.893 12.5114 103.234 12.7273C103.579 12.9432 103.861 13.2519 104.081 13.6534C104.301 14.0511 104.411 14.5682 104.411 15.2045V21H102.751V19.8068H102.683C102.573 20.0265 102.409 20.2424 102.189 20.4545C101.969 20.6667 101.687 20.8428 101.342 20.983C100.998 21.1231 100.585 21.1932 100.104 21.1932ZM100.473 19.8295C100.943 19.8295 101.344 19.7367 101.678 19.5511C102.015 19.3655 102.27 19.1231 102.445 18.8239C102.623 18.5208 102.712 18.197 102.712 17.8523V16.7273C102.651 16.7879 102.534 16.8447 102.359 16.8977C102.189 16.947 101.994 16.9905 101.774 17.0284C101.554 17.0625 101.34 17.0947 101.132 17.125C100.924 17.1515 100.75 17.1742 100.609 17.1932C100.28 17.2348 99.9787 17.3049 99.706 17.4034C99.437 17.5019 99.2211 17.6439 99.0582 17.8295C98.8991 18.0114 98.8196 18.2538 98.8196 18.5568C98.8196 18.9773 98.9749 19.2955 99.2855 19.5114C99.5961 19.7235 99.992 19.8295 100.473 19.8295ZM100.411 11.108L101.74 8.48864H103.53L101.768 11.108H100.411ZM110.349 21.1761C109.505 21.1761 108.777 20.9848 108.168 20.6023C107.562 20.2159 107.096 19.6837 106.77 19.0057C106.444 18.3277 106.281 17.5511 106.281 16.6761C106.281 15.7898 106.448 15.0076 106.781 14.3295C107.115 13.6477 107.584 13.1155 108.19 12.733C108.796 12.3504 109.51 12.1591 110.332 12.1591C110.995 12.1591 111.586 12.2822 112.105 12.5284C112.624 12.7708 113.043 13.1117 113.361 13.5511C113.683 13.9905 113.874 14.5038 113.935 15.0909H112.281C112.19 14.6818 111.982 14.3295 111.656 14.0341C111.334 13.7386 110.902 13.5909 110.361 13.5909C109.887 13.5909 109.473 13.7159 109.116 13.9659C108.764 14.2121 108.49 14.5644 108.293 15.0227C108.096 15.4773 107.997 16.0152 107.997 16.6364C107.997 17.2727 108.094 17.822 108.287 18.2841C108.48 18.7462 108.753 19.1042 109.105 19.358C109.461 19.6117 109.88 19.7386 110.361 19.7386C110.683 19.7386 110.974 19.6799 111.236 19.5625C111.501 19.4413 111.723 19.2689 111.901 19.0455C112.082 18.822 112.209 18.553 112.281 18.2386H113.935C113.874 18.803 113.69 19.3068 113.384 19.75C113.077 20.1932 112.666 20.5417 112.151 20.7955C111.639 21.0492 111.039 21.1761 110.349 21.1761ZM119.825 12.2727V13.6364H115.058V12.2727H119.825ZM116.337 10.1818H118.036V18.4375C118.036 18.767 118.085 19.0152 118.183 19.1818C118.282 19.3447 118.409 19.4564 118.564 19.517C118.723 19.5739 118.895 19.6023 119.081 19.6023C119.217 19.6023 119.337 19.5928 119.439 19.5739C119.541 19.5549 119.621 19.5398 119.678 19.5284L119.984 20.9318C119.886 20.9697 119.746 21.0076 119.564 21.0455C119.382 21.0871 119.155 21.1098 118.882 21.1136C118.435 21.1212 118.018 21.0417 117.632 20.875C117.246 20.7083 116.933 20.4508 116.695 20.1023C116.456 19.7538 116.337 19.3163 116.337 18.7898V10.1818ZM124.244 21.1932C123.691 21.1932 123.191 21.0909 122.744 20.8864C122.297 20.678 121.943 20.3769 121.682 19.983C121.424 19.589 121.295 19.1061 121.295 18.5341C121.295 18.0417 121.39 17.6364 121.58 17.3182C121.769 17 122.025 16.7481 122.347 16.5625C122.669 16.3769 123.028 16.2367 123.426 16.142C123.824 16.0473 124.229 15.9754 124.642 15.9261C125.165 15.8655 125.589 15.8163 125.915 15.7784C126.241 15.7367 126.477 15.6705 126.625 15.5795C126.773 15.4886 126.847 15.3409 126.847 15.1364V15.0966C126.847 14.6004 126.706 14.2159 126.426 13.9432C126.15 13.6705 125.737 13.5341 125.188 13.5341C124.616 13.5341 124.165 13.661 123.835 13.9148C123.509 14.1648 123.284 14.4432 123.159 14.75L121.562 14.3864C121.752 13.8561 122.028 13.428 122.392 13.1023C122.759 12.7727 123.182 12.5341 123.659 12.3864C124.136 12.2348 124.638 12.1591 125.165 12.1591C125.513 12.1591 125.883 12.2008 126.273 12.2841C126.667 12.3636 127.034 12.5114 127.375 12.7273C127.72 12.9432 128.002 13.2519 128.222 13.6534C128.441 14.0511 128.551 14.5682 128.551 15.2045V21H126.892V19.8068H126.824C126.714 20.0265 126.549 20.2424 126.33 20.4545C126.11 20.6667 125.828 20.8428 125.483 20.983C125.138 21.1231 124.725 21.1932 124.244 21.1932ZM124.614 19.8295C125.083 19.8295 125.485 19.7367 125.818 19.5511C126.155 19.3655 126.411 19.1231 126.585 18.8239C126.763 18.5208 126.852 18.197 126.852 17.8523V16.7273C126.792 16.7879 126.674 16.8447 126.5 16.8977C126.33 16.947 126.134 16.9905 125.915 17.0284C125.695 17.0625 125.481 17.0947 125.273 17.125C125.064 17.1515 124.89 17.1742 124.75 17.1932C124.42 17.2348 124.119 17.3049 123.847 17.4034C123.578 17.5019 123.362 17.6439 123.199 17.8295C123.04 18.0114 122.96 18.2538 122.96 18.5568C122.96 18.9773 123.116 19.2955 123.426 19.5114C123.737 19.7235 124.133 19.8295 124.614 19.8295ZM132.513 15.8182V21H130.814V12.2727H132.445V13.6932H132.553C132.753 13.2311 133.068 12.8598 133.496 12.5795C133.928 12.2992 134.471 12.1591 135.126 12.1591C135.721 12.1591 136.242 12.2841 136.689 12.5341C137.136 12.7803 137.482 13.1477 137.729 13.6364C137.975 14.125 138.098 14.7292 138.098 15.4489V21H136.399V15.6534C136.399 15.0208 136.234 14.5265 135.905 14.1705C135.575 13.8106 135.123 13.6307 134.547 13.6307C134.153 13.6307 133.803 13.7159 133.496 13.8864C133.193 14.0568 132.952 14.3068 132.774 14.6364C132.6 14.9621 132.513 15.3561 132.513 15.8182ZM144.053 21.1761C143.234 21.1761 142.52 20.9886 141.911 20.6136C141.301 20.2386 140.827 19.714 140.49 19.0398C140.153 18.3655 139.984 17.5777 139.984 16.6761C139.984 15.7708 140.153 14.9792 140.49 14.3011C140.827 13.6231 141.301 13.0966 141.911 12.7216C142.52 12.3466 143.234 12.1591 144.053 12.1591C144.871 12.1591 145.585 12.3466 146.195 12.7216C146.804 13.0966 147.278 13.6231 147.615 14.3011C147.952 14.9792 148.121 15.7708 148.121 16.6761C148.121 17.5777 147.952 18.3655 147.615 19.0398C147.278 19.714 146.804 20.2386 146.195 20.6136C145.585 20.9886 144.871 21.1761 144.053 21.1761ZM144.058 19.75C144.589 19.75 145.028 19.6098 145.376 19.3295C145.725 19.0492 145.982 18.6761 146.149 18.2102C146.32 17.7443 146.405 17.2311 146.405 16.6705C146.405 16.1136 146.32 15.6023 146.149 15.1364C145.982 14.6667 145.725 14.2898 145.376 14.0057C145.028 13.7216 144.589 13.5795 144.058 13.5795C143.524 13.5795 143.081 13.7216 142.729 14.0057C142.38 14.2898 142.121 14.6667 141.95 15.1364C141.784 15.6023 141.7 16.1136 141.7 16.6705C141.7 17.2311 141.784 17.7443 141.95 18.2102C142.121 18.6761 142.38 19.0492 142.729 19.3295C143.081 19.6098 143.524 19.75 144.058 19.75ZM156.557 14.4034L155.017 14.6761C154.953 14.4792 154.85 14.2917 154.71 14.1136C154.574 13.9356 154.388 13.7898 154.153 13.6761C153.919 13.5625 153.625 13.5057 153.273 13.5057C152.792 13.5057 152.39 13.6136 152.068 13.8295C151.746 14.0417 151.585 14.3163 151.585 14.6534C151.585 14.9451 151.693 15.1799 151.909 15.358C152.125 15.536 152.473 15.6818 152.955 15.7955L154.341 16.1136C155.144 16.2992 155.742 16.5852 156.136 16.9716C156.53 17.358 156.727 17.8598 156.727 18.4773C156.727 19 156.576 19.4659 156.273 19.875C155.973 20.2803 155.555 20.5985 155.017 20.8295C154.483 21.0606 153.864 21.1761 153.159 21.1761C152.182 21.1761 151.384 20.9678 150.767 20.5511C150.15 20.1307 149.771 19.5341 149.631 18.7614L151.273 18.5114C151.375 18.9394 151.585 19.2633 151.903 19.483C152.222 19.6989 152.636 19.8068 153.148 19.8068C153.705 19.8068 154.15 19.6913 154.483 19.4602C154.816 19.2254 154.983 18.9394 154.983 18.6023C154.983 18.3295 154.881 18.1004 154.676 17.9148C154.475 17.7292 154.167 17.589 153.75 17.4943L152.273 17.1705C151.458 16.9848 150.856 16.6894 150.466 16.2841C150.08 15.8788 149.886 15.3655 149.886 14.7443C149.886 14.2292 150.03 13.7784 150.318 13.392C150.606 13.0057 151.004 12.7045 151.511 12.4886C152.019 12.2689 152.6 12.1591 153.256 12.1591C154.199 12.1591 154.941 12.3636 155.483 12.7727C156.025 13.178 156.383 13.7216 156.557 14.4034Z" fill="#1E1E1E"/>
</svg>
