<svg width="230" height="43" viewBox="0 0 230 43" fill="none" xmlns="http://www.w3.org/2000/svg">
<rect width="229.5" height="43" rx="21.5" fill="white"/>
<path d="M46.5 14.75C46.5 13.5125 45.4875 12.5 44.25 12.5H26.25C25.0125 12.5 24 13.5125 24 14.75V28.25C24 29.4875 25.0125 30.5 26.25 30.5H44.25C45.4875 30.5 46.5 29.4875 46.5 28.25V14.75ZM44.25 14.75L35.25 20.375L26.25 14.75H44.25ZM44.25 28.25H26.25V17L35.25 22.625L44.25 17V28.25Z" fill="black"/>
<path d="M70.4432 19.1477H68.6705C68.6023 18.7689 68.4754 18.4356 68.2898 18.1477C68.1042 17.8598 67.8769 17.6155 67.608 17.4148C67.339 17.214 67.0379 17.0625 66.7045 16.9602C66.375 16.858 66.0246 16.8068 65.6534 16.8068C64.983 16.8068 64.3826 16.9754 63.8523 17.3125C63.3258 17.6496 62.9091 18.1439 62.6023 18.7955C62.2992 19.447 62.1477 20.2424 62.1477 21.1818C62.1477 22.1288 62.2992 22.928 62.6023 23.5795C62.9091 24.2311 63.3277 24.7235 63.858 25.0568C64.3883 25.3902 64.9848 25.5568 65.6477 25.5568C66.0152 25.5568 66.3636 25.5076 66.6932 25.4091C67.0265 25.3068 67.3277 25.1572 67.5966 24.9602C67.8655 24.7633 68.0928 24.5227 68.2784 24.2386C68.4678 23.9508 68.5985 23.6212 68.6705 23.25L70.4432 23.2557C70.3485 23.8277 70.1648 24.3542 69.892 24.8352C69.6231 25.3125 69.2765 25.7254 68.8523 26.0739C68.4318 26.4186 67.9508 26.6856 67.4091 26.875C66.8674 27.0644 66.2765 27.1591 65.6364 27.1591C64.6288 27.1591 63.7311 26.9205 62.9432 26.4432C62.1553 25.9621 61.5341 25.2746 61.0795 24.3807C60.6288 23.4867 60.4034 22.4205 60.4034 21.1818C60.4034 19.9394 60.6307 18.8731 61.0852 17.983C61.5398 17.089 62.161 16.4034 62.9489 15.9261C63.7367 15.4451 64.6326 15.2045 65.6364 15.2045C66.2538 15.2045 66.8295 15.2936 67.3636 15.4716C67.9015 15.6458 68.3845 15.9034 68.8125 16.2443C69.2405 16.5814 69.5947 16.9943 69.875 17.483C70.1553 17.9678 70.3447 18.5227 70.4432 19.1477ZM76.0838 27.1761C75.2656 27.1761 74.5516 26.9886 73.9418 26.6136C73.3319 26.2386 72.8584 25.714 72.5213 25.0398C72.1842 24.3655 72.0156 23.5777 72.0156 22.6761C72.0156 21.7708 72.1842 20.9792 72.5213 20.3011C72.8584 19.6231 73.3319 19.0966 73.9418 18.7216C74.5516 18.3466 75.2656 18.1591 76.0838 18.1591C76.902 18.1591 77.616 18.3466 78.2259 18.7216C78.8357 19.0966 79.3092 19.6231 79.6463 20.3011C79.9834 20.9792 80.152 21.7708 80.152 22.6761C80.152 23.5777 79.9834 24.3655 79.6463 25.0398C79.3092 25.714 78.8357 26.2386 78.2259 26.6136C77.616 26.9886 76.902 27.1761 76.0838 27.1761ZM76.0895 25.75C76.6198 25.75 77.0592 25.6098 77.4077 25.3295C77.7562 25.0492 78.0137 24.6761 78.1804 24.2102C78.3509 23.7443 78.4361 23.2311 78.4361 22.6705C78.4361 22.1136 78.3509 21.6023 78.1804 21.1364C78.0137 20.6667 77.7562 20.2898 77.4077 20.0057C77.0592 19.7216 76.6198 19.5795 76.0895 19.5795C75.5554 19.5795 75.1122 19.7216 74.7599 20.0057C74.4115 20.2898 74.152 20.6667 73.9815 21.1364C73.8149 21.6023 73.7315 22.1136 73.7315 22.6705C73.7315 23.2311 73.8149 23.7443 73.9815 24.2102C74.152 24.6761 74.4115 25.0492 74.7599 25.3295C75.1122 25.6098 75.5554 25.75 76.0895 25.75ZM83.7472 21.8182V27H82.0483V18.2727H83.679V19.6932H83.7869C83.9877 19.2311 84.3021 18.8598 84.7301 18.5795C85.1619 18.2992 85.7055 18.1591 86.3608 18.1591C86.9555 18.1591 87.4763 18.2841 87.9233 18.5341C88.3703 18.7803 88.7169 19.1477 88.9631 19.6364C89.2093 20.125 89.3324 20.7292 89.3324 21.4489V27H87.6335V21.6534C87.6335 21.0208 87.4688 20.5265 87.1392 20.1705C86.8097 19.8106 86.357 19.6307 85.7812 19.6307C85.3873 19.6307 85.0369 19.7159 84.7301 19.8864C84.4271 20.0568 84.1866 20.3068 84.0085 20.6364C83.8343 20.9621 83.7472 21.3561 83.7472 21.8182ZM95.6847 18.2727V19.6364H90.9176V18.2727H95.6847ZM92.196 16.1818H93.8949V24.4375C93.8949 24.767 93.9441 25.0152 94.0426 25.1818C94.1411 25.3447 94.268 25.4564 94.4233 25.517C94.5824 25.5739 94.7547 25.6023 94.9403 25.6023C95.0767 25.6023 95.196 25.5928 95.2983 25.5739C95.4006 25.5549 95.4801 25.5398 95.5369 25.5284L95.8438 26.9318C95.7453 26.9697 95.6051 27.0076 95.4233 27.0455C95.2415 27.0871 95.0142 27.1098 94.7415 27.1136C94.2945 27.1212 93.8778 27.0417 93.4915 26.875C93.1051 26.7083 92.7926 26.4508 92.554 26.1023C92.3153 25.7538 92.196 25.3163 92.196 24.7898V16.1818ZM100.104 27.1932C99.5507 27.1932 99.0507 27.0909 98.6037 26.8864C98.1567 26.678 97.8026 26.3769 97.5412 25.983C97.2836 25.589 97.1548 25.1061 97.1548 24.5341C97.1548 24.0417 97.2495 23.6364 97.4389 23.3182C97.6283 23 97.884 22.7481 98.206 22.5625C98.5279 22.3769 98.8878 22.2367 99.2855 22.142C99.6832 22.0473 100.089 21.9754 100.501 21.9261C101.024 21.8655 101.448 21.8163 101.774 21.7784C102.1 21.7367 102.337 21.6705 102.484 21.5795C102.632 21.4886 102.706 21.3409 102.706 21.1364V21.0966C102.706 20.6004 102.566 20.2159 102.286 19.9432C102.009 19.6705 101.596 19.5341 101.047 19.5341C100.475 19.5341 100.024 19.661 99.6946 19.9148C99.3688 20.1648 99.1435 20.4432 99.0185 20.75L97.4219 20.3864C97.6113 19.8561 97.8878 19.428 98.2514 19.1023C98.6188 18.7727 99.0412 18.5341 99.5185 18.3864C99.9957 18.2348 100.498 18.1591 101.024 18.1591C101.373 18.1591 101.742 18.2008 102.132 18.2841C102.526 18.3636 102.893 18.5114 103.234 18.7273C103.579 18.9432 103.861 19.2519 104.081 19.6534C104.301 20.0511 104.411 20.5682 104.411 21.2045V27H102.751V25.8068H102.683C102.573 26.0265 102.409 26.2424 102.189 26.4545C101.969 26.6667 101.687 26.8428 101.342 26.983C100.998 27.1231 100.585 27.1932 100.104 27.1932ZM100.473 25.8295C100.943 25.8295 101.344 25.7367 101.678 25.5511C102.015 25.3655 102.27 25.1231 102.445 24.8239C102.623 24.5208 102.712 24.197 102.712 23.8523V22.7273C102.651 22.7879 102.534 22.8447 102.359 22.8977C102.189 22.947 101.994 22.9905 101.774 23.0284C101.554 23.0625 101.34 23.0947 101.132 23.125C100.924 23.1515 100.75 23.1742 100.609 23.1932C100.28 23.2348 99.9787 23.3049 99.706 23.4034C99.437 23.5019 99.2211 23.6439 99.0582 23.8295C98.8991 24.0114 98.8196 24.2538 98.8196 24.5568C98.8196 24.9773 98.9749 25.2955 99.2855 25.5114C99.5961 25.7235 99.992 25.8295 100.473 25.8295ZM110.349 27.1761C109.505 27.1761 108.777 26.9848 108.168 26.6023C107.562 26.2159 107.096 25.6837 106.77 25.0057C106.444 24.3277 106.281 23.5511 106.281 22.6761C106.281 21.7898 106.448 21.0076 106.781 20.3295C107.115 19.6477 107.584 19.1155 108.19 18.733C108.796 18.3504 109.51 18.1591 110.332 18.1591C110.995 18.1591 111.586 18.2822 112.105 18.5284C112.624 18.7708 113.043 19.1117 113.361 19.5511C113.683 19.9905 113.874 20.5038 113.935 21.0909H112.281C112.19 20.6818 111.982 20.3295 111.656 20.0341C111.334 19.7386 110.902 19.5909 110.361 19.5909C109.887 19.5909 109.473 19.7159 109.116 19.9659C108.764 20.2121 108.49 20.5644 108.293 21.0227C108.096 21.4773 107.997 22.0152 107.997 22.6364C107.997 23.2727 108.094 23.822 108.287 24.2841C108.48 24.7462 108.753 25.1042 109.105 25.358C109.461 25.6117 109.88 25.7386 110.361 25.7386C110.683 25.7386 110.974 25.6799 111.236 25.5625C111.501 25.4413 111.723 25.2689 111.901 25.0455C112.082 24.822 112.209 24.553 112.281 24.2386H113.935C113.874 24.803 113.69 25.3068 113.384 25.75C113.077 26.1932 112.666 26.5417 112.151 26.7955C111.639 27.0492 111.039 27.1761 110.349 27.1761ZM119.825 18.2727V19.6364H115.058V18.2727H119.825ZM116.337 16.1818H118.036V24.4375C118.036 24.767 118.085 25.0152 118.183 25.1818C118.282 25.3447 118.409 25.4564 118.564 25.517C118.723 25.5739 118.895 25.6023 119.081 25.6023C119.217 25.6023 119.337 25.5928 119.439 25.5739C119.541 25.5549 119.621 25.5398 119.678 25.5284L119.984 26.9318C119.886 26.9697 119.746 27.0076 119.564 27.0455C119.382 27.0871 119.155 27.1098 118.882 27.1136C118.435 27.1212 118.018 27.0417 117.632 26.875C117.246 26.7083 116.933 26.4508 116.695 26.1023C116.456 25.7538 116.337 25.3163 116.337 24.7898V16.1818ZM125.287 27.1761C124.469 27.1761 123.755 26.9886 123.145 26.6136C122.535 26.2386 122.062 25.714 121.724 25.0398C121.387 24.3655 121.219 23.5777 121.219 22.6761C121.219 21.7708 121.387 20.9792 121.724 20.3011C122.062 19.6231 122.535 19.0966 123.145 18.7216C123.755 18.3466 124.469 18.1591 125.287 18.1591C126.105 18.1591 126.819 18.3466 127.429 18.7216C128.039 19.0966 128.512 19.6231 128.849 20.3011C129.187 20.9792 129.355 21.7708 129.355 22.6761C129.355 23.5777 129.187 24.3655 128.849 25.0398C128.512 25.714 128.039 26.2386 127.429 26.6136C126.819 26.9886 126.105 27.1761 125.287 27.1761ZM125.293 25.75C125.823 25.75 126.262 25.6098 126.611 25.3295C126.959 25.0492 127.217 24.6761 127.384 24.2102C127.554 23.7443 127.639 23.2311 127.639 22.6705C127.639 22.1136 127.554 21.6023 127.384 21.1364C127.217 20.6667 126.959 20.2898 126.611 20.0057C126.262 19.7216 125.823 19.5795 125.293 19.5795C124.759 19.5795 124.315 19.7216 123.963 20.0057C123.615 20.2898 123.355 20.6667 123.185 21.1364C123.018 21.6023 122.935 22.1136 122.935 22.6705C122.935 23.2311 123.018 23.7443 123.185 24.2102C123.355 24.6761 123.615 25.0492 123.963 25.3295C124.315 25.6098 124.759 25.75 125.293 25.75ZM135.486 30.2727V18.2727H137.145V19.6875H137.287C137.385 19.5057 137.527 19.2955 137.713 19.0568C137.899 18.8182 138.156 18.6098 138.486 18.4318C138.815 18.25 139.251 18.1591 139.793 18.1591C140.497 18.1591 141.126 18.3371 141.679 18.6932C142.232 19.0492 142.666 19.5625 142.98 20.233C143.298 20.9034 143.457 21.7102 143.457 22.6534C143.457 23.5966 143.3 24.4053 142.986 25.0795C142.671 25.75 142.24 26.267 141.69 26.6307C141.141 26.9905 140.514 27.1705 139.81 27.1705C139.279 27.1705 138.846 27.0814 138.509 26.9034C138.175 26.7254 137.914 26.517 137.724 26.2784C137.535 26.0398 137.389 25.8277 137.287 25.642H137.185V30.2727H135.486ZM137.151 22.6364C137.151 23.25 137.24 23.7879 137.418 24.25C137.596 24.7121 137.853 25.0739 138.19 25.3352C138.527 25.5928 138.94 25.7216 139.429 25.7216C139.937 25.7216 140.361 25.5871 140.702 25.3182C141.043 25.0455 141.3 24.6761 141.474 24.2102C141.652 23.7443 141.741 23.2197 141.741 22.6364C141.741 22.0606 141.654 21.5436 141.48 21.0852C141.31 20.6269 141.052 20.2652 140.707 20C140.366 19.7348 139.94 19.6023 139.429 19.6023C138.937 19.6023 138.52 19.7292 138.179 19.983C137.842 20.2367 137.586 20.5909 137.412 21.0455C137.238 21.5 137.151 22.0303 137.151 22.6364ZM149.037 27.1761C148.219 27.1761 147.505 26.9886 146.895 26.6136C146.285 26.2386 145.812 25.714 145.474 25.0398C145.137 24.3655 144.969 23.5777 144.969 22.6761C144.969 21.7708 145.137 20.9792 145.474 20.3011C145.812 19.6231 146.285 19.0966 146.895 18.7216C147.505 18.3466 148.219 18.1591 149.037 18.1591C149.855 18.1591 150.569 18.3466 151.179 18.7216C151.789 19.0966 152.262 19.6231 152.599 20.3011C152.937 20.9792 153.105 21.7708 153.105 22.6761C153.105 23.5777 152.937 24.3655 152.599 25.0398C152.262 25.714 151.789 26.2386 151.179 26.6136C150.569 26.9886 149.855 27.1761 149.037 27.1761ZM149.043 25.75C149.573 25.75 150.012 25.6098 150.361 25.3295C150.709 25.0492 150.967 24.6761 151.134 24.2102C151.304 23.7443 151.389 23.2311 151.389 22.6705C151.389 22.1136 151.304 21.6023 151.134 21.1364C150.967 20.6667 150.709 20.2898 150.361 20.0057C150.012 19.7216 149.573 19.5795 149.043 19.5795C148.509 19.5795 148.065 19.7216 147.713 20.0057C147.365 20.2898 147.105 20.6667 146.935 21.1364C146.768 21.6023 146.685 22.1136 146.685 22.6705C146.685 23.2311 146.768 23.7443 146.935 24.2102C147.105 24.6761 147.365 25.0492 147.713 25.3295C148.065 25.6098 148.509 25.75 149.043 25.75ZM155.001 27V18.2727H156.643V19.6591H156.734C156.893 19.1894 157.174 18.8201 157.575 18.5511C157.981 18.2784 158.439 18.142 158.95 18.142C159.056 18.142 159.181 18.1458 159.325 18.1534C159.473 18.161 159.589 18.1705 159.672 18.1818V19.8068C159.604 19.7879 159.482 19.767 159.308 19.7443C159.134 19.7178 158.96 19.7045 158.786 19.7045C158.384 19.7045 158.026 19.7898 157.712 19.9602C157.401 20.1269 157.155 20.3598 156.973 20.6591C156.791 20.9545 156.7 21.2917 156.7 21.6705V27H155.001ZM169.138 27.1761C168.278 27.1761 167.537 26.9924 166.916 26.625C166.299 26.2538 165.821 25.733 165.484 25.0625C165.151 24.3883 164.984 23.5985 164.984 22.6932C164.984 21.7992 165.151 21.0114 165.484 20.3295C165.821 19.6477 166.291 19.1155 166.893 18.733C167.5 18.3504 168.208 18.1591 169.018 18.1591C169.511 18.1591 169.988 18.2405 170.45 18.4034C170.912 18.5663 171.327 18.822 171.695 19.1705C172.062 19.5189 172.352 19.9716 172.564 20.5284C172.776 21.0814 172.882 21.7538 172.882 22.5455V23.1477H165.945V21.875H171.217C171.217 21.428 171.126 21.0322 170.945 20.6875C170.763 20.339 170.507 20.0644 170.178 19.8636C169.852 19.6629 169.469 19.5625 169.03 19.5625C168.553 19.5625 168.136 19.6799 167.78 19.9148C167.428 20.1458 167.155 20.4489 166.962 20.8239C166.772 21.1951 166.678 21.5985 166.678 22.0341V23.0284C166.678 23.6117 166.78 24.108 166.984 24.517C167.193 24.9261 167.482 25.2386 167.854 25.4545C168.225 25.6667 168.659 25.7727 169.155 25.7727C169.477 25.7727 169.77 25.7273 170.036 25.6364C170.301 25.5417 170.53 25.4015 170.723 25.2159C170.916 25.0303 171.064 24.8011 171.166 24.5284L172.774 24.8182C172.645 25.2917 172.414 25.7064 172.081 26.0625C171.751 26.4148 171.337 26.6894 170.837 26.8864C170.34 27.0795 169.774 27.1761 169.138 27.1761ZM174.767 27V18.2727H176.398V19.6932H176.506C176.688 19.2121 176.985 18.8371 177.398 18.5682C177.811 18.2955 178.305 18.1591 178.881 18.1591C179.464 18.1591 179.953 18.2955 180.347 18.5682C180.744 18.8409 181.038 19.2159 181.227 19.6932H181.318C181.527 19.2273 181.858 18.8561 182.312 18.5795C182.767 18.2992 183.309 18.1591 183.938 18.1591C184.729 18.1591 185.375 18.4072 185.875 18.9034C186.379 19.3996 186.631 20.1477 186.631 21.1477V27H184.932V21.3068C184.932 20.7159 184.771 20.2879 184.449 20.0227C184.127 19.7576 183.742 19.625 183.295 19.625C182.742 19.625 182.312 19.7955 182.006 20.1364C181.699 20.4735 181.545 20.9072 181.545 21.4375V27H179.852V21.1989C179.852 20.7254 179.705 20.3447 179.409 20.0568C179.114 19.7689 178.729 19.625 178.256 19.625C177.934 19.625 177.636 19.7102 177.364 19.8807C177.095 20.0473 176.877 20.2803 176.71 20.5795C176.547 20.8788 176.466 21.2254 176.466 21.6193V27H174.767ZM191.447 27.1932C190.894 27.1932 190.394 27.0909 189.947 26.8864C189.5 26.678 189.146 26.3769 188.885 25.983C188.627 25.589 188.499 25.1061 188.499 24.5341C188.499 24.0417 188.593 23.6364 188.783 23.3182C188.972 23 189.228 22.7481 189.55 22.5625C189.872 22.3769 190.232 22.2367 190.629 22.142C191.027 22.0473 191.432 21.9754 191.845 21.9261C192.368 21.8655 192.792 21.8163 193.118 21.7784C193.444 21.7367 193.68 21.6705 193.828 21.5795C193.976 21.4886 194.05 21.3409 194.05 21.1364V21.0966C194.05 20.6004 193.91 20.2159 193.629 19.9432C193.353 19.6705 192.94 19.5341 192.391 19.5341C191.819 19.5341 191.368 19.661 191.038 19.9148C190.713 20.1648 190.487 20.4432 190.362 20.75L188.766 20.3864C188.955 19.8561 189.232 19.428 189.595 19.1023C189.963 18.7727 190.385 18.5341 190.862 18.3864C191.339 18.2348 191.841 18.1591 192.368 18.1591C192.716 18.1591 193.086 18.2008 193.476 18.2841C193.87 18.3636 194.237 18.5114 194.578 18.7273C194.923 18.9432 195.205 19.2519 195.425 19.6534C195.644 20.0511 195.754 20.5682 195.754 21.2045V27H194.095V25.8068H194.027C193.917 26.0265 193.752 26.2424 193.533 26.4545C193.313 26.6667 193.031 26.8428 192.686 26.983C192.341 27.1231 191.929 27.1932 191.447 27.1932ZM191.817 25.8295C192.286 25.8295 192.688 25.7367 193.021 25.5511C193.358 25.3655 193.614 25.1231 193.788 24.8239C193.966 24.5208 194.055 24.197 194.055 23.8523V22.7273C193.995 22.7879 193.877 22.8447 193.703 22.8977C193.533 22.947 193.338 22.9905 193.118 23.0284C192.898 23.0625 192.684 23.0947 192.476 23.125C192.268 23.1515 192.093 23.1742 191.953 23.1932C191.624 23.2348 191.322 23.3049 191.05 23.4034C190.781 23.5019 190.565 23.6439 190.402 23.8295C190.243 24.0114 190.163 24.2538 190.163 24.5568C190.163 24.9773 190.319 25.2955 190.629 25.5114C190.94 25.7235 191.336 25.8295 191.817 25.8295ZM198.017 27V18.2727H199.716V27H198.017ZM198.875 16.9261C198.58 16.9261 198.326 16.8277 198.114 16.6307C197.905 16.4299 197.801 16.1913 197.801 15.9148C197.801 15.6345 197.905 15.3958 198.114 15.1989C198.326 14.9981 198.58 14.8977 198.875 14.8977C199.17 14.8977 199.422 14.9981 199.631 15.1989C199.843 15.3958 199.949 15.6345 199.949 15.9148C199.949 16.1913 199.843 16.4299 199.631 16.6307C199.422 16.8277 199.17 16.9261 198.875 16.9261ZM203.7 15.3636V27H202.001V15.3636H203.7Z" fill="#1E1E1E"/>
</svg>
