<svg width="72" height="72" viewBox="0 0 72 72" fill="none" xmlns="http://www.w3.org/2000/svg">
<circle cx="36" cy="36" r="36" fill="#E1EBFF"/>
<path d="M41.25 51.75L30.75 48.075L22.6125 51.225C22.0292 51.4583 21.4896 51.3924 20.9937 51.0273C20.4979 50.6621 20.25 50.1738 20.25 49.5625V25.0625C20.25 24.6833 20.3597 24.3479 20.579 24.0563C20.7983 23.7646 21.097 23.5458 21.475 23.4L30.75 20.25L41.25 23.925L49.3875 20.775C49.9708 20.5417 50.5104 20.6076 51.0063 20.9728C51.5021 21.3379 51.75 21.8262 51.75 22.4375V46.9375C51.75 47.3167 51.6403 47.6521 51.421 47.9438C51.2017 48.2354 50.903 48.4542 50.525 48.6L41.25 51.75ZM39.5 47.4625V26.9875L32.5 24.5375V45.0125L39.5 47.4625ZM43 47.4625L48.25 45.7125V24.975L43 26.9875V47.4625ZM23.75 47.025L29 45.0125V24.5375L23.75 26.2875V47.025Z" fill="#0049FD"/>
</svg>
