<svg width="72" height="72" viewBox="0 0 72 72" fill="none" xmlns="http://www.w3.org/2000/svg">
<circle cx="36" cy="36" r="36" fill="#E1EBFF"/>
<path d="M50.0081 40.5211L43.0152 37.3876L42.9959 37.3787C42.6328 37.2234 42.2368 37.1611 41.8437 37.1974C41.4505 37.2337 41.0726 37.3674 40.7441 37.5865C40.7054 37.612 40.6682 37.6398 40.6327 37.6696L37.0198 40.7497C34.7309 39.6379 32.3677 37.2926 31.256 35.0334L34.3405 31.3655C34.3702 31.3284 34.3984 31.2913 34.4251 31.2512C34.6395 30.9236 34.7695 30.5481 34.8037 30.1581C34.8379 29.768 34.7752 29.3756 34.621 29.0157V28.9979L31.4786 21.9931C31.2749 21.523 30.9245 21.1313 30.4799 20.8766C30.0353 20.622 29.5202 20.5179 29.0116 20.58C27.0002 20.8447 25.154 21.8325 23.8176 23.3589C22.4813 24.8853 21.7464 26.846 21.75 28.8747C21.75 40.6606 31.3391 50.2497 43.125 50.2497C45.1537 50.2533 47.1144 49.5184 48.6408 48.1821C50.1672 46.8458 51.155 44.9995 51.4197 42.9881C51.4819 42.4797 51.3781 41.9647 51.1237 41.5201C50.8693 41.0755 50.4779 40.7251 50.0081 40.5211ZM43.125 47.8747C38.0876 47.8692 33.2581 45.8657 29.6961 42.3037C26.1341 38.7417 24.1305 33.9121 24.125 28.8747C24.1194 27.4252 24.6417 26.0232 25.5942 24.9306C26.5467 23.8379 27.8643 23.1294 29.301 22.9372C29.3004 22.9431 29.3004 22.9491 29.301 22.955L32.4182 29.9316L29.35 33.6039C29.3189 33.6398 29.2906 33.678 29.2654 33.7182C29.042 34.061 28.911 34.4556 28.885 34.8639C28.859 35.2722 28.9389 35.6803 29.117 36.0487C30.4618 38.7992 33.2331 41.5498 36.0134 42.8931C36.3844 43.0696 36.7949 43.1467 37.2046 43.117C37.6144 43.0874 38.0095 42.9519 38.3513 42.7239C38.3894 42.6982 38.426 42.6705 38.4611 42.6408L42.0696 39.5622L49.0462 42.6868H49.0625C48.8727 44.1256 48.1652 45.4459 47.0723 46.4007C45.9795 47.3556 44.5762 47.8796 43.125 47.8747Z" fill="#0049FD"/>
</svg>
