<svg width="80" height="80" viewBox="0 0 80 80" fill="none" xmlns="http://www.w3.org/2000/svg">
<circle cx="40" cy="40" r="40" fill="#E1EBFF"/>
<path d="M40 54C43.713 54 47.274 52.525 49.8995 49.8995C52.525 47.274 54 43.713 54 40C54 36.287 52.525 32.726 49.8995 30.1005C47.274 27.475 43.713 26 40 26C36.287 26 32.726 27.475 30.1005 30.1005C27.475 32.726 26 36.287 26 40C26 43.713 27.475 47.274 30.1005 49.8995C32.726 52.525 36.287 54 40 54ZM40 22.5C42.2981 22.5 44.5738 22.9527 46.697 23.8321C48.8202 24.7116 50.7493 26.0006 52.3744 27.6256C53.9994 29.2507 55.2884 31.1798 56.1679 33.303C57.0474 35.4262 57.5 37.7019 57.5 40C57.5 44.6413 55.6563 49.0925 52.3744 52.3744C49.0925 55.6563 44.6413 57.5 40 57.5C30.3225 57.5 22.5 49.625 22.5 40C22.5 35.3587 24.3437 30.9075 27.6256 27.6256C30.9075 24.3437 35.3587 22.5 40 22.5ZM40.875 31.25V40.4375L48.75 45.11L47.4375 47.2625L38.25 41.75V31.25H40.875Z" fill="#0049FD"/>
</svg>
